<svg xmlns="http://www.w3.org/2000/svg" width="24" height="24" viewBox="0 0 24 24" fill="none">

    <!-- Badge -->
    <path d="M12 3.5
        C13.2 3.5 13.8 4.7 14.8 5.1
        C15.8 5.5 17.2 5.2 18 6
        C18.8 6.8 18.5 8.2 18.9 9.2
        C19.3 10.2 20.5 10.8 20.5 12
        C20.5 13.2 19.3 13.8 18.9 14.8
        C18.5 15.8 18.8 17.2 18 18
        C17.2 18.8 15.8 18.5 14.8 18.9
        C13.8 19.3 13.2 20.5 12 20.5
        C10.8 20.5 10.2 19.3 9.2 18.9
        C8.2 18.5 6.8 18.8 6 18
        C5.2 17.2 5.5 15.8 5.1 14.8
        C4.7 13.8 3.5 13.2 3.5 12
        C3.5 10.8 4.7 10.2 5.1 9.2
        C5.5 8.2 5.2 6.8 6 6
        C6.8 5.2 8.2 5.5 9.2 5.1
        C10.2 4.7 10.8 3.5 12 3.5Z" stroke="white" stroke-width="2" stroke-linejoin="round"></path>

    <!-- Check -->
    <path d="M8.8 12.3
           L11 14.5
           L15.6 9.9" stroke="white" stroke-width="2" stroke-linecap="round" stroke-linejoin="round"></path>

</svg>